<svg xmlns="http://www.w3.org/2000/svg">
  <defs>
    <!-- Menu -->
    <symbol id="menu" viewBox="0 0 24 24" fill="none" stroke-linecap="round" stroke-linejoin="round" stroke-width="1.5">
      <path d="M3 12h18"/>
      <path d="M3 6h18"/>
      <path d="M3 18h18"/>
    </symbol>

    <!-- x -->
    <symbol id="x" viewBox="0 0 24 24" fill="none" stroke-linecap="round" stroke-linejoin="round" stroke-width="1.5">
      <path d="M18 6L6 18"/>
      <path d="M6 6l12 12"/>
    </symbol>

    <!-- sun -->
    <symbol id="sun" viewBox="0 0 24 24" fill="none" stroke-linecap="round" stroke-linejoin="round" stroke-width="1.5">
      <circle cx="12" cy="12" r="5"/>
      <path d="M12 1v2"/>
      <path d="M12 21v2"/>
      <path d="M4.22 4.22l1.42 1.42"/>
      <path d="M18.36 18.36l1.42 1.42"/>
      <path d="M1 12h2"/>
      <path d="M21 12h2"/>
      <path d="M4.22 19.78l1.42-1.42"/>
      <path d="M18.36 5.64l1.42-1.42"/>
    </symbol>

    <!-- moon -->
    <symbol id="moon" viewBox="0 0 24 24" fill="none" stroke-linecap="round" stroke-linejoin="round" stroke-width="1.5">
      <path d="M21 12.79A9 9 0 1111.21 3 7 7 0 0021 12.79z"/>
    </symbol>
  </defs>
</svg>
