<svg xmlns="http://www.w3.org/2000/svg" viewBox="0 0 24 24">
  <defs>
    <!-- Menu -->
    <symbol id="menu" viewBox="0 0 24 24" fill="none" stroke-linecap="round" stroke-linejoin="round" stroke-width="1.5">
      <path d="M3 12h18"/>
      <path d="M3 6h18"/>
      <path d="M3 18h18"/>
    </symbol>

    <!-- x -->
    <symbol id="x" viewBox="0 0 24 24" fill="none" stroke-linecap="round" stroke-linejoin="round" stroke-width="1.5">
      <path d="M18 6L6 18"/>
      <path d="M6 6l12 12"/>
    </symbol>

    <!-- sun -->
    <symbol id="sun" viewBox="0 0 24 24" fill="none" stroke-linecap="round" stroke-linejoin="round" stroke-width="1.5">
      <circle cx="12" cy="12" r="5"/>
      <path d="M12 1v2"/>
      <path d="M12 21v2"/>
      <path d="M4.22 4.22l1.42 1.42"/>
      <path d="M18.36 18.36l1.42 1.42"/>
      <path d="M1 12h2"/>
      <path d="M21 12h2"/>
      <path d="M4.22 19.78l1.42-1.42"/>
      <path d="M18.36 5.64l1.42-1.42"/>
    </symbol>

    <!-- moon -->
    <symbol id="moon" viewBox="0 0 24 24" fill="none" stroke-linecap="round" stroke-linejoin="round" stroke-width="1.5">
      <path d="M21 12.79A9 9 0 1111.21 3 7 7 0 0021 12.79z"/>
    </symbol>

    <!-- message -->
    <symbol id="message" viewBox="0 0 24 24" fill="none" stroke="currentColor" stroke-linecap="round" stroke-linejoin="round" stroke-width="1.5">
      <path d="M21 11.5a8.38 8.38 0 0 1-.9 3.8 8.5 8.5 0 0 1-7.6 4.7 8.38 8.38 0 0 1-3.8-.9L3 21l1.9-5.7a8.38 8.38 0 0 1-.9-3.8 8.5 8.5 0 0 1 4.7-7.6 8.38 8.38 0 0 1 3.8-.9h.5a8.48 8.48 0 0 1 8 8v.5z"/>
    </symbol>

    <!-- arrow -->
    <symbol id="arrow" viewBox="0 0 24 24" fill="none" stroke="currentColor" stroke-linecap="round" stroke-linejoin="round" stroke-width="1.5">
      <path d="M5 12h14"/>
      <path d="m12 5 7 7-7 7"/>
    </symbol>

    <!-- down arrow -->
    <symbol id="down-arrow" viewBox="0 0 24 24" fill="none" stroke-linecap="round" stroke-linejoin="round" stroke-width="1.5">
      <path d="M6 9l6 6 6-6"/>
    </symbol>

  </defs>
</svg>
